Coordinates
version=1
nRows=27
nColumns=12
inDegrees=yes

Units are S.I. units (second, meters, Newtons, ...)
Angles are in degrees

endheader
time	SC_y	SC_z	SC_x	AC_y	AC_z	AC_x	GH_y	GH_z	GH_yy	EL_x	PS_y
       0.0              -17.54          7.829          70.13          57.83          2.551          2.192          22.38           13.6         -104.8          63.02          18.47
   0.01653              -17.54          7.833          70.13          57.83          2.552          2.191           22.4          13.61         -104.7          63.03          18.48
   0.03305              -17.55          7.837          70.13          57.83          2.553           2.19          22.42          13.62         -104.7          63.03          18.48
   0.04958              -17.55          7.842          70.13          57.83          2.554          2.188          22.44          13.64         -104.7          63.04          18.49
    0.0661              -17.55          7.846          70.12          57.83          2.555          2.186          22.47          13.65         -104.6          63.04           18.5
   0.08263              -17.56          7.852          70.12          57.83          2.556          2.185          22.49          13.66         -104.6          63.05           18.5
   0.09915              -17.56          7.857          70.11          57.82          2.557          2.183          22.52          13.68         -104.6          63.06          18.51
    0.1157              -17.57          7.863          70.11          57.82          2.559          2.181          22.55           13.7         -104.5          63.06          18.52
    0.1322              -17.57          7.869          70.11          57.82           2.56          2.179          22.58          13.71         -104.5          63.07          18.53
    0.1487              -17.58          7.876           70.1          57.82          2.562          2.176          22.61          13.73         -104.4          63.08          18.54
    0.1653              -17.58          7.884          70.09          57.82          2.563          2.174          22.64          13.75         -104.4          63.09          18.55
    0.1818              -17.59          7.892          70.09          57.81          2.565          2.171          22.68          13.77         -104.3          63.09          18.56
    0.1983              -17.59            7.9          70.08          57.81          2.567          2.168          22.72           13.8         -104.3           63.1          18.58
    0.2148               -17.6          7.909          70.08          57.81          2.569          2.165          22.76          13.82         -104.2          63.11          18.59
    0.2314              -17.61          7.919          70.07          57.81          2.571          2.162          22.81          13.85         -104.2          63.13           18.6
    0.2479              -17.62           7.93          70.06           57.8          2.574          2.158          22.86          13.88         -104.1          63.14          18.62
    0.2644              -17.62          7.942          70.05           57.8          2.576          2.154          22.91          13.91         -104.0          63.15          18.64
    0.2809              -17.63          7.954          70.04           57.8          2.579           2.15          22.97          13.94         -103.9          63.16          18.66
    0.2975              -17.64          7.968          70.03          57.79          2.582          2.145          23.04          13.98         -103.8          63.18          18.68
     0.314              -17.66          7.984          70.02          57.79          2.586           2.14          23.11          14.02         -103.7           63.2           18.7
    0.3305              -17.67            8.0          70.01          57.79           2.59          2.135          23.19          14.07         -103.6          63.22          18.73
     0.347              -17.68          8.019           70.0          57.78          2.594          2.128          23.28          14.12         -103.5          63.24          18.75
    0.3636               -17.7          8.039          69.98          57.78          2.598          2.121          23.37          14.17         -103.4          63.26          18.78
    0.3801              -17.71          8.062          69.97          57.77          2.603          2.114          23.48          14.23         -103.2          63.28          18.82
    0.3966              -17.73          8.087          69.95          57.76          2.609          2.105           23.6           14.3         -103.0          63.31          18.86
    0.4131              -17.75          8.115          69.93          57.76          2.615          2.096          23.73          14.38         -102.8          63.34           18.9
    0.4297              -17.78          8.146           69.9          57.75          2.622          2.085          23.88          14.46         -102.6          63.38          18.94
